<?xml version="1.0" encoding="UTF-8"?>
<svg id="Layer_1" data-name="Layer 1" xmlns="http://www.w3.org/2000/svg" viewBox="0 0 477.03 75.6">
  <defs>
    <style>
      .cls-1 {
        fill: #ec8b33;
      }

      .cls-2 {
        fill: #4a5059;
      }

      .cls-3 {
        fill: #edf2f7;
      }
    </style>
  </defs>
  <rect class="cls-3" width="477.03" height="75.6" rx="12.44" ry="12.44"/>
  <path class="cls-2" d="M34.55,17.39v39.77h-9.03V17.39h9.03Z"/>
  <path class="cls-2" d="M72.02,49.31c1.65,1,5.07,2.18,7.73,2.18s3.84-.94,3.84-2.42-.89-2.18-4.25-3.3c-5.96-2.01-8.26-5.25-8.2-8.67,0-5.37,4.6-9.44,11.74-9.44,3.36,0,6.37.77,8.14,1.65l-1.59,6.2c-1.3-.71-3.78-1.65-6.25-1.65-2.18,0-3.42.88-3.42,2.36,0,1.36,1.12,2.07,4.66,3.3,5.49,1.89,7.79,4.66,7.85,8.91,0,5.37-4.25,9.32-12.51,9.32-3.78,0-7.14-.83-9.32-2.01l1.59-6.43Z"/>
  <path class="cls-2" d="M105.35,20.05v8.26h6.43v6.61h-6.43v10.44c0,3.48.83,5.07,3.54,5.07,1.12,0,2.01-.12,2.66-.24l.06,6.79c-1.18.47-3.3.77-5.84.77-2.89,0-5.31-1-6.73-2.48-1.65-1.71-2.48-4.48-2.48-8.56v-11.8h-3.84v-6.61h3.84v-6.25l8.79-2.01Z"/>
  <path class="cls-2" d="M131.02,57.16l-.53-2.89h-.18c-1.89,2.3-4.84,3.54-8.26,3.54-5.84,0-9.32-4.25-9.32-8.85,0-7.49,6.73-11.09,16.94-11.03v-.41c0-1.53-.83-3.72-5.25-3.72-2.95,0-6.08,1-7.97,2.18l-1.65-5.78c2.01-1.12,5.96-2.54,11.21-2.54,9.62,0,12.69,5.66,12.69,12.45v10.03c0,2.77.12,5.43.41,7.02h-8.08ZM129.96,43.53c-4.72-.06-8.38,1.06-8.38,4.54,0,2.3,1.53,3.42,3.54,3.42,2.24,0,4.07-1.48,4.66-3.3.12-.47.18-1,.18-1.53v-3.13Z"/>
  <path class="cls-2" d="M143.41,37.51c0-3.6-.12-6.67-.24-9.21h7.79l.41,3.95h.18c1.18-1.83,4.13-4.6,8.91-4.6,5.9,0,10.33,3.89,10.33,12.39v17.11h-8.97v-15.99c0-3.72-1.3-6.25-4.54-6.25-2.48,0-3.95,1.71-4.54,3.36-.24.53-.35,1.42-.35,2.24v16.64h-8.97v-19.65Z"/>
  <path class="cls-2" d="M185.3,20.05v8.26h6.43v6.61h-6.43v10.44c0,3.48.83,5.07,3.54,5.07,1.12,0,2.01-.12,2.66-.24l.06,6.79c-1.18.47-3.3.77-5.84.77-2.89,0-5.31-1-6.73-2.48-1.65-1.71-2.48-4.48-2.48-8.56v-11.8h-3.84v-6.61h3.84v-6.25l8.79-2.01Z"/>
  <path class="cls-2" d="M231.26,36.86c0,13.04-7.91,20.95-19.53,20.95s-18.7-8.91-18.7-20.24c0-11.92,7.61-20.83,19.35-20.83s18.88,9.15,18.88,20.12ZM202.52,37.39c0,7.79,3.66,13.28,9.68,13.28s9.56-5.78,9.56-13.51c0-7.14-3.42-13.28-9.62-13.28s-9.62,5.78-9.62,13.51Z"/>
  <path class="cls-2" d="M254.33,57.16v-22.25h-9.21v22.25h-9.03v-22.25h-3.78v-6.61h3.78v-.59c0-3.42.88-6.84,3.3-9.26,1.95-1.95,4.78-3.19,8.85-3.19,1.47,0,2.95.35,3.83.71l-1.24,6.61c-.71-.24-1.47-.41-2.3-.41-2.66,0-3.48,2.18-3.48,5.07v1.06h9.26v-1.12c0-3.48,1.06-7.32,3.66-9.68,2.24-2.12,5.31-2.89,7.97-2.89,1.95,0,3.54.24,4.78.59l-.35,6.9c-.83-.24-1.71-.41-2.95-.41-2.95,0-4.19,2.3-4.19,5.13v1.48h5.78v6.61h-5.72v22.25h-8.97Z"/>
  <path class="cls-2" d="M277.39,45.6c.29,3.72,3.95,5.49,8.14,5.49,3.07,0,5.55-.41,7.97-1.18l1.18,6.08c-2.95,1.18-6.55,1.77-10.44,1.77-9.79,0-15.4-5.66-15.4-14.69,0-7.32,4.54-15.4,14.57-15.4,9.32,0,12.86,7.26,12.86,14.4,0,1.53-.18,2.89-.29,3.54h-18.59ZM287.96,39.46c0-2.18-.94-5.84-5.08-5.84-3.78,0-5.31,3.42-5.55,5.84h10.62Z"/>
  <path class="cls-2" d="M299.28,37.81c0-4.25-.12-7.02-.24-9.5h7.73l.29,5.31h.24c1.48-4.19,5.02-5.96,7.79-5.96.83,0,1.24,0,1.89.12v8.44c-.65-.12-1.42-.24-2.42-.24-3.3,0-5.55,1.77-6.14,4.54-.12.59-.18,1.3-.18,2.01v14.63h-8.97v-19.35Z"/>
  <path class="cls-2" d="M319.28,49.31c1.65,1,5.08,2.18,7.73,2.18s3.83-.94,3.83-2.42-.88-2.18-4.25-3.3c-5.96-2.01-8.26-5.25-8.2-8.67,0-5.37,4.6-9.44,11.74-9.44,3.36,0,6.37.77,8.14,1.65l-1.59,6.2c-1.3-.71-3.78-1.65-6.25-1.65-2.18,0-3.42.88-3.42,2.36,0,1.36,1.12,2.07,4.66,3.3,5.49,1.89,7.79,4.66,7.85,8.91,0,5.37-4.25,9.32-12.51,9.32-3.78,0-7.14-.83-9.32-2.01l1.59-6.43Z"/>
  <path class="cls-1" d="M341.35,52.38c0-3.19,2.18-5.49,5.31-5.49s5.25,2.24,5.25,5.49-2.12,5.43-5.31,5.43-5.25-2.3-5.25-5.43Z"/>
  <path class="cls-2" d="M355.27,17.92c2.77-.47,6.67-.83,12.16-.83s9.5,1.06,12.16,3.19c2.54,2.01,4.25,5.31,4.25,9.2s-1.3,7.2-3.66,9.44c-3.07,2.89-7.61,4.19-12.92,4.19-1.18,0-2.24-.06-3.07-.18v14.22h-8.91V17.92ZM364.18,35.98c.77.18,1.71.24,3.01.24,4.78,0,7.73-2.42,7.73-6.49,0-3.66-2.54-5.84-7.02-5.84-1.83,0-3.07.18-3.72.35v11.74Z"/>
  <path class="cls-2" d="M387.19,17.92c2.89-.47,7.2-.83,11.98-.83,5.9,0,10.03.89,12.86,3.13,2.36,1.89,3.66,4.66,3.66,8.32,0,5.07-3.6,8.56-7.02,9.79v.18c2.77,1.12,4.31,3.78,5.31,7.44,1.24,4.48,2.48,9.68,3.25,11.21h-9.21c-.65-1.12-1.59-4.37-2.77-9.26-1.06-4.96-2.77-6.31-6.43-6.37h-2.71v15.64h-8.91V17.92ZM396.1,35.03h3.54c4.48,0,7.14-2.24,7.14-5.72,0-3.66-2.48-5.49-6.61-5.55-2.18,0-3.42.18-4.07.3v10.98Z"/>
  <path class="cls-2" d="M455.99,36.86c0,13.04-7.91,20.95-19.53,20.95s-18.7-8.91-18.7-20.24c0-11.92,7.61-20.83,19.35-20.83s18.88,9.15,18.88,20.12ZM427.25,37.39c0,7.79,3.66,13.28,9.68,13.28s9.56-5.78,9.56-13.51c0-7.14-3.42-13.28-9.62-13.28s-9.62,5.78-9.62,13.51Z"/>
  <g>
    <rect class="cls-1" x="60.88" y="43.68" width="6.36" height="13.48"/>
    <rect class="cls-1" x="39.86" y="43.68" width="6.13" height="13.48"/>
    <path class="cls-2" d="M56.92,27.66c-4.78,0-7.73,2.77-8.91,4.6h-.18l-.41-3.95h-7.79c.12,2.54.24,5.61.24,9.21v5.97l13.6-11.43,13.78,11.63v-3.64c0-8.5-4.43-12.39-10.33-12.39Z"/>
    <g>
      <rect class="cls-1" x="50.74" y="40.67" width="2.27" height="2.47"/>
      <rect class="cls-1" x="50.74" y="37.33" width="2.27" height="2.47"/>
      <rect class="cls-1" x="53.76" y="37.43" width="2.47" height="2.27" transform="translate(93.55 -16.43) rotate(90)"/>
      <rect class="cls-1" x="53.76" y="40.77" width="2.47" height="2.27" transform="translate(96.9 -13.08) rotate(90)"/>
    </g>
    <rect class="cls-1" x="39.86" y="59.16" width="27.38" height="2.7"/>
  </g>
</svg>