<?xml version="1.0" encoding="UTF-8"?>
<svg id="a" data-name="Layer 1" xmlns="http://www.w3.org/2000/svg" viewBox="0 0 178.79 31.78">
  <defs>
    <style>
      .b {
        fill: #ffce04;
      }

      .c {
        fill: #203642;
      }
    </style>
  </defs>
  <g>
    <path class="c" d="M19.83,3.76l.12.09v.06l-.03,21.12c-.02.08-.07.13-.15.15h-6.21l-.12-.09v-.06l.06-8.64h-5.28l.03,8.64c-.02.08-.07.13-.15.15H1.92l-.12-.09v-.06c.04-10.92.06-16.39.06-16.41-.08-.8-.24-1.44-.46-1.94-.23-.49-.46-.79-.69-.9-.23-.11-.42-.21-.56-.3-.14-.09-.18-.21-.12-.38.18-.52.68-1.02,1.5-1.5.82-.48,1.65-.72,2.49-.72,1.22,0,2.24.41,3.06,1.21.82.81,1.23,2.02,1.23,3.62,0,.28,0,.96-.02,2.04-.01,1.08-.02,1.85-.02,2.31h5.22l-.06-8.16c.02-.08.07-.13.15-.15h6.24Z"/>
    <path class="c" d="M37.86,17.71c0,2.3-.79,4.24-2.37,5.8-1.58,1.57-3.59,2.36-6.03,2.36s-4.4-.79-6-2.37c-1.6-1.58-2.4-3.51-2.4-5.79s.8-4.21,2.4-5.79c1.6-1.58,3.6-2.37,6-2.37s4.4.79,6,2.37c1.6,1.58,2.4,3.51,2.4,5.79ZM26.97,17.71c0,1.36.21,2.5.63,3.41s1.04,1.36,1.86,1.36,1.49-.44,1.89-1.32c.4-.88.6-2.03.6-3.45s-.21-2.52-.63-3.42-1.04-1.35-1.86-1.35-1.47.45-1.88,1.34c-.41.89-.62,2.04-.62,3.43Z"/>
    <path class="c" d="M63.63,19.06c0,.88.08,1.61.24,2.2.16.59.35,1,.56,1.23s.41.41.61.52c.2.12.36.22.48.3.12.08.15.19.09.33-.18.5-.63.97-1.35,1.42-.72.45-1.48.67-2.28.67-1.24,0-2.29-.42-3.13-1.25-.85-.83-1.27-1.93-1.27-3.32v-5.82c0-1.08-.29-1.66-.87-1.74-.54-.08-1.02.26-1.44,1.02-.34.64-.51,1.41-.51,2.31v.54l.24,7.5c0,.1-.05.16-.15.18h-6l-.12-.09v-.06l-.03-7.53v-2.13c0-1.08-.29-1.66-.87-1.74-.54-.08-1.02.26-1.44,1.02-.34.64-.51,1.41-.51,2.31v8.04c0,.1-.05.16-.15.18h-6c-.08-.02-.12-.07-.12-.15.14-4.56.21-7.53.21-8.91,0-1.08-.1-1.94-.31-2.59s-.44-1.04-.67-1.19c-.24-.14-.44-.27-.6-.38s-.21-.24-.15-.41c.16-.52.6-1,1.32-1.46.72-.45,1.48-.67,2.28-.67,1.06,0,1.96.31,2.7.92.74.61,1.21,1.46,1.41,2.54.58-1.18,1.31-2.05,2.19-2.61.88-.56,1.76-.84,2.64-.84.96,0,1.8.32,2.53.96.73.64,1.22,1.51,1.46,2.61.56-1.22,1.29-2.12,2.19-2.7s1.8-.87,2.7-.87c1.16,0,2.14.46,2.94,1.38.8.92,1.2,2.11,1.2,3.57v4.68Z"/>
    <path class="c" d="M80.4,20.53c.14.1.17.26.09.48-.1.36-.33.79-.68,1.29-.35.5-.81,1.03-1.38,1.58s-1.32,1.01-2.23,1.38c-.92.37-1.89.55-2.91.55-2.26,0-4.19-.8-5.77-2.4s-2.39-3.53-2.39-5.79.8-4.19,2.39-5.77,3.65-2.39,6.17-2.39c2.24,0,3.98.56,5.21,1.67,1.23,1.11,1.84,2.3,1.84,3.56,0,1.12-.31,2.06-.92,2.81-.61.75-1.38,1.26-2.31,1.51-.93.26-1.95.43-3.06.51-1.11.08-2.16.01-3.14-.21.52,1.46,1.65,2.3,3.38,2.52,1.73.22,3.5-.2,5.33-1.26.14-.1.27-.11.39-.03ZM72.63,13.15c-.9.54-1.42,1.71-1.56,3.51,1.3.12,2.29-.03,2.97-.46.68-.43,1.02-1.06,1.02-1.91,0-.42-.15-.77-.45-1.05-.3-.28-.68-.41-1.14-.39,0,.02-.01.03-.03.03h-.09c-.24.04-.48.13-.72.27Z"/>
  </g>
  <g>
    <path class="b" d="M101.07,3.88c-.06,6.72-.08,11.35-.06,13.89,0,1.16-.2,2.22-.6,3.18s-.94,1.75-1.63,2.37c-.69.62-1.49,1.15-2.38,1.59-.9.44-1.84.71-2.83.81-.99.1-1.99.11-2.99.02-1-.09-1.95-.35-2.85-.78s-1.7-.96-2.4-1.58c-.7-.62-1.26-1.41-1.67-2.37-.41-.96-.62-2.01-.62-3.15v-7.71c0-.78-.06-1.46-.18-2.04s-.27-1.01-.44-1.28c-.17-.27-.36-.49-.56-.66-.2-.17-.38-.28-.54-.33-.16-.05-.28-.11-.36-.19s-.1-.18-.06-.3c.2-.54.68-1.05,1.44-1.53s1.56-.72,2.4-.72c1.34,0,2.49.44,3.45,1.32s1.44,2.04,1.44,3.48v11.55c0,.64.16,1.17.48,1.6.32.43.71.7,1.16.81.45.11.89.12,1.33.01.44-.1.82-.37,1.14-.81.32-.44.48-.99.48-1.65V3.91l.12-.18h6.6c.08.02.12.07.12.15Z"/>
    <path class="b" d="M114.3,9.43c1.78,0,3.2.83,4.26,2.48,1.06,1.65,1.59,3.55,1.59,5.71s-.54,4.11-1.6,5.71c-1.07,1.61-2.54,2.42-4.4,2.42s-3.41-.95-4.47-2.85v8.7c0,.1-.05.16-.15.18h-6l-.12-.09v-.06c-.02-8.96-.03-14.13-.03-15.51,0-1.08-.09-1.94-.27-2.59s-.38-1.04-.6-1.19c-.22-.14-.4-.27-.54-.38s-.18-.24-.12-.41c.18-.52.63-1,1.35-1.46.72-.45,1.48-.67,2.28-.67,1.04,0,1.93.31,2.67.92.74.61,1.21,1.45,1.41,2.5,1.18-2.28,2.76-3.42,4.74-3.42ZM110.1,20.54c.4.77.95,1.16,1.65,1.16s1.25-.38,1.65-1.16c.4-.77.6-1.74.6-2.92s-.2-2.15-.6-2.91c-.4-.76-.95-1.14-1.65-1.14s-1.25.38-1.65,1.14c-.4.76-.6,1.73-.6,2.91s.2,2.16.6,2.92Z"/>
    <path class="b" d="M131.49,22.48c.26,0,.42.08.48.24.06.16.03.34-.09.54-.4.8-1.1,1.46-2.08,1.96-.99.51-2.04.77-3.14.77-1.04-.04-1.93-.27-2.67-.69-1.36-.82-2.04-2.16-2.04-4.02v-8.37h-1.53c-.08,0-.12-.05-.12-.15v-2.55c.02-.06.06-.1.12-.12h1.53v-2.28c.02-.08.07-.13.15-.15l5.76-2.37.12.09v.06c.02,1.4.03,2.95.03,4.65h3.66c.06,0,.09.05.09.15v2.52c0,.08-.04.13-.12.15h-3.63v6.72c0,.24.02.56.06.96.06.38.17.71.32.97.15.27.3.47.46.6s.38.22.64.29c.27.06.49.09.66.09s.41,0,.71-.03c.3-.02.51-.03.63-.03Z"/>
    <path class="b" d="M140.93,25l-.12.18h-6c-.1-.02-.15-.07-.15-.15.16-4.56.24-7.53.24-8.91,0-1.08-.1-1.94-.31-2.59s-.44-1.04-.67-1.19c-.24-.14-.45-.27-.62-.38s-.23-.24-.17-.41c.18-.52.63-1,1.35-1.46.72-.45,1.48-.67,2.28-.67,1.24,0,2.25.41,3.01,1.23.77.82,1.16,1.93,1.16,3.33v11.01ZM139.97,5.85c0,1.52-1.23,2.75-2.75,2.75s-2.75-1.23-2.75-2.75,1.23-2.75,2.75-2.75,2.75,1.23,2.75,2.75Z"/>
    <path class="b" d="M170.58,13.77c1.04,3.23,3.2,6.5,6.39,7.9.33.15.8.16.74.66-.05.43-.39,1.29-.63,1.66-1.62,2.59-5.37,2.42-7.64.84-2.03-1.42-2.94-4.01-3.44-6.34-.23-1.08-.33-2.18-.53-3.27-.24.14-.57.13-.84.2l-.02,9.78-7.12.02-.06-.07V8.34c-.13-.9-.37-1.96-1.1-2.58-.32-.27-1.08-.49-.9-1,.27-.77,1.76-1.66,2.5-1.93,3.41-1.22,6.81.8,6.73,4.54v4.61c.49-.07.97-.22,1.41-.46,1.69-.92,2.89-3.47,3.27-5.29.17-.81.25-1.07-.46-1.57-.25-.18-.93-.52-1.09-.73s-.03-.56.21-.65c2.62-.98,5.17-2.17,7.78-3.15.23-.09.51-.26.71-.02.11.14.3,1.16.37,1.42.56,2.15,1.12,4.29,1.65,6.44.07.28.18.58.24.85.08.42.02.65-.46.66l-1.45-.84c-.1-.04-.22,0-.31.06-.16.09-.52.83-.67,1.05-.27.39-.64.83-.97,1.18-1.19,1.27-2.7,2.22-4.33,2.83Z"/>
    <path class="b" d="M163.34,12.54,157.43,22.36c-.86,1-2.01,1.86-3.15,2.43-1.14.57-2.28.9-3.41.99-1.13.09-2.25-.03-3.36-.35-1.11-.32-2.08-.82-2.92-1.49-.84-.67-1.52-1.56-2.04-2.65-.52-1.09-.78-2.31-.78-3.63,0-2.21.75-4.1,2.27-5.68,1.51-1.58,3.4-2.42,5.69-2.52,1.84,0,3.42.37,4.74,1.1,1.32.73,1.98,1.77,1.98,3.12.02.76-.25,1.46-.81,2.08-.56.62-1.26.93-2.1.93-.46,0-.91-.06-1.35-.18-.44-.12-.69-.23-.75-.33-.04-.08-.07-.18-.08-.29-.01-.11,0-.26.02-.45.02-.19.03-.36.03-.5,0-.62-.13-1.13-.4-1.51s-.62-.57-1.04-.57c-.76,0-1.35.5-1.75,1.49-.41.99-.56,2.09-.44,3.3.1,1.27.51,2.24,1.25,2.92.73.68,1.58,1.04,2.55,1.07.97.03,1.98-.16,3.02-.56,1.04-.4,2.09-1.04,2.85-1.78M163.34,16.67"/>
  </g>
</svg>